# xmcd
#
# Track frame offsets: 
#        150
#        16209
#        26874
#        45198
#        56986
#        72261
#        83419
#        97543
#        110238
#        124276
#        138672
#        156105
#
# Disc length: 2219 seconds
#
# Revision: 0
# Processed by: cddbd v1.5.2PL0 Copyright (c) Steve Scherf et al.
# Submitted via: ExactAudioCopy v1.0b1
#
DISCID=9a08a90c
DTITLE=Matuška Waldemar - The country door is always open
DYEAR=1985
DGENRE=Country
TTITLE0=Sail away
TTITLE1=Broken lady
TTITLE2=She beleives in me
TTITLE3=The door is always open
TTITLE4=The last one to know
TTITLE5=Tear time
TTITLE6=Semolita
TTITLE7=Stranger in your arms
TTITLE8=Another somebody done somebody wrong song
TTITLE9=It's a heartache
TTITLE10=Take this heart
TTITLE11=West texas saturday night
EXTD=
EXTT0=
EXTT1=
EXTT2=
EXTT3=
EXTT4=
EXTT5=
EXTT6=
EXTT7=
EXTT8=
EXTT9=
EXTT10=
EXTT11=
PLAYORDER=
